<svg xmlns="http://www.w3.org/2000/svg" width="32.448" height="64.874" viewBox="0 0 32.448 64.874"><g transform="translate(-335.034 -319.262)"><g transform="translate(335.034 319.262)"><path d="M29.845,21.295a18.426,18.426,0,0,1-5.786-.921,2.645,2.645,0,0,0-2.572.542l-3.648,2.754a20.161,20.161,0,0,1-9.065-9.062l2.673-3.553A2.622,2.622,0,0,0,12.091,8.4,18.445,18.445,0,0,1,11.166,2.6,2.606,2.606,0,0,0,8.563,0H2.6A2.606,2.606,0,0,0,0,2.6,29.876,29.876,0,0,0,29.845,32.443a2.606,2.606,0,0,0,2.6-2.6V23.9A2.607,2.607,0,0,0,29.845,21.295Z" fill="#333"/></g><g transform="translate(335.034 351.693)"><path d="M29.845,21.295a18.426,18.426,0,0,1-5.786-.921,2.645,2.645,0,0,0-2.572.542l-3.648,2.754a20.161,20.161,0,0,1-9.065-9.062l2.673-3.553A2.622,2.622,0,0,0,12.091,8.4,18.445,18.445,0,0,1,11.166,2.6,2.606,2.606,0,0,0,8.563,0H2.6A2.606,2.606,0,0,0,0,2.6,29.876,29.876,0,0,0,29.845,32.443a2.606,2.606,0,0,0,2.6-2.6V23.9A2.607,2.607,0,0,0,29.845,21.295Z" fill="#75c15b"/></g></g></svg>